<svg width="128" height="128" viewBox="0 0 64 64" fill="none" xmlns="http://www.w3.org/2000/svg">
<path d="M64 14.9333C64 6.68587 57.3141 0 49.0667 0H36.3434C37.3984 14.7888 49.2113 26.6017 64 27.6566V14.9333Z" fill="white"/>
<path d="M14.9333 0C6.68587 0 0 6.68587 0 14.9333V27.6566C14.7888 26.6016 26.6016 14.7888 27.6566 0H14.9333Z" fill="white"/>
<path d="M32 16.2959C32.6643 24.6621 39.3377 31.3357 47.704 32C39.3377 32.6643 32.6643 39.3377 32 47.704C31.3357 39.3377 24.6621 32.6643 16.2959 32C24.6623 31.3357 31.3357 24.6623 32 16.2959Z" fill="white"/>
<path fill-rule="evenodd" clip-rule="evenodd" d="M64 36.3434C49.2112 37.3983 37.3983 49.2112 36.3434 64H49.0667C57.3141 64 64 57.3141 64 49.0667V36.3434ZM27.6566 64C26.6017 49.2113 14.7888 37.3984 0 36.3434V49.0667C0 57.3141 6.68587 64 14.9333 64H27.6566Z" fill="white"/>
</svg>
