<?xml version="1.0" encoding="utf-8"?>
<svg width="512" height="512" viewBox="0 0 512 512" fill="#8040ff" xmlns="http://www.w3.org/2000/svg" xmlns:bx="https://boxy-svg.com">
  <defs>
    <bx:export>
      <bx:file format="svg"/>
    </bx:export>
  </defs>
  <path d="M189.915 52.7412L144.5 46L151.303 43.9069C155.402 42.6455 159.248 40.6719 162.662 38.0765L163.73 37.2654C167.845 34.1375 171.12 30.0364 173.259 25.3304C174.414 22.7883 175.224 20.1027 175.665 17.3454L176.173 14.1698C176.72 10.7473 176.692 7.25741 176.09 3.84416C175.834 2.39429 177.279 1.23239 178.64 1.79296L180.498 2.55815C182.829 3.51798 185.084 4.65434 187.242 5.95732L194.965 10.6205C205.229 16.8174 214.226 24.9023 221.48 34.4477L226.616 41.2051C228.529 43.7228 230.783 45.9625 233.313 47.8599C236.088 49.9411 239.164 51.5874 242.435 52.7418L246 54L227.274 54.749C214.785 55.2486 202.278 54.5764 189.915 52.7412Z"/>
  <path d="M178.321 93.006L191.79 68.3844C191.922 68.143 191.93 67.8528 191.812 67.6042L187.22 57.9361C184.337 51.8673 178.219 48 171.5 48L170.23 47.9562C161.437 47.653 152.704 46.3829 144.188 44.169L142.504 43.731C135.521 41.9153 128.746 39.3732 122.293 36.1463L119.446 34.723C115.159 32.5797 111.099 30.012 107.325 27.0584L103.55 24.1043C102.428 23.2265 100.803 23.4506 99.9606 24.5992C97.3651 28.1384 95.7379 32.2935 95.2395 36.6541L94.5535 42.6571C94.1854 45.8774 94.1446 49.1267 94.4316 52.3552L96.1031 71.1595C97.3467 85.1501 102.175 98.584 110.123 110.165L111.825 112.645C114.267 116.203 117.113 119.466 120.306 122.369C120.756 122.778 121.329 123.03 121.936 123.084C145.029 125.156 167.194 113.348 178.321 93.006Z"/>
  <path d="M127.378 123.538L143.376 116.613C150.438 113.557 152.588 104.577 147.676 98.6533C143.683 93.8378 136.58 93.0803 131.661 96.9453L127.867 99.9256C126.958 100.64 126.127 101.448 125.387 102.336L116.263 113.284C114.982 114.822 115.084 117.084 116.5 118.5L119.318 121.721C119.77 122.237 120.296 122.685 120.878 123.049C122.833 124.271 125.263 124.453 127.378 123.538Z"/>
  <path d="M147.988 44.8437L147.5 45L148.962 45.4651C155.294 47.4798 161.861 48.66 168.498 48.9761C168.83 48.9919 169.163 48.9534 169.483 48.8619L172.5 48L174 47.5L164.419 45.4172C163.158 45.1431 161.982 44.5687 160.991 43.7426C160.218 43.0981 160.223 41.9084 161.002 41.2708L162.423 40.1084C164.12 38.7197 165.493 36.976 166.444 35C160.934 39.3642 154.682 42.6988 147.988 44.8437Z"/>
  <path d="M 202.776 219.428 L 72.291 452.693 C 71.644 453.851 70.069 454.069 69.131 453.131 L 66.5 450.5 L 55.5 438 L 48.489 428.927 C 41.841 420.323 35.905 411.192 30.742 401.624 L 29.744 399.775 C 24.259 389.611 19.664 378.991 16.012 368.034 L 12.501 357.5 C 7.226 338.379 6.015 318.365 8.947 298.747 L 9.071 297.919 C 10.355 289.323 12.405 280.86 15.195 272.629 L 21.002 255.5 L 25.335 246.385 C 32.055 232.249 41.321 219.472 52.668 208.691 L 58.173 203.462 C 69.554 192.65 83.395 184.769 98.501 180.5 C 94.968 181.498 91.362 182.216 87.716 182.647 L 80.501 183.5 L 75.001 184 L 69.001 185 L 63.001 185.561 L 59.001 186 L 56.12 186.18 C 55.194 186.238 54.759 185.057 55.501 184.5 L 55.501 184.5 L 59.528 182.57 C 72.507 176.351 83.177 166.172 90.001 153.5 L 94.449 146.562 C 99.753 138.288 106.808 131.28 115.117 126.032 L 116.834 124.948 C 119.936 122.989 123.247 121.384 126.706 120.163 L 142.447 114.607 C 145.349 113.583 147.691 111.39 148.904 108.561 L 149.144 108 C 149.706 106.687 149.933 105.255 149.804 103.833 C 149.609 101.689 148.617 99.697 147.024 98.249 L 144.257 95.733 C 144.087 95.578 143.931 95.408 143.793 95.223 L 126.001 71.5 L 111.804 51.932 C 108.995 48.06 107.36 43.46 107.095 38.684 C 107.052 37.927 107.837 37.402 108.521 37.73 L 123.882 45.103 C 137.175 51.484 152.331 52.825 166.538 48.879 C 169.841 47.962 173.215 47.325 176.625 46.975 L 183.676 46.252 C 201.407 44.433 219.321 45.906 236.517 50.596 L 238.001 51.001 L 254.799 57.048 C 275.87 64.634 292.568 81.058 300.501 102.001 L 304.023 115.735 C 305.005 119.568 306.393 123.286 308.163 126.825 C 312.322 135.143 318.496 142.29 326.122 147.614 L 335.085 153.871 C 339.024 156.621 343.158 159.079 347.454 161.228 L 367.29 171.146 C 368.179 171.59 368.445 172.733 367.844 173.524 C 362.373 180.722 355.149 186.396 346.86 190.006 L 335.372 195.009 C 330.798 197.001 326.082 198.651 321.263 199.946 L 312.823 202.213 C 300.993 205.391 288.797 207.001 276.547 207.001 L 256.334 207.001 C 252.149 207.001 248.002 206.214 244.109 204.68 C 228.582 198.563 210.924 204.864 202.777 219.429 Z M 271.185 135.316 L 279.987 135.418 C 281.182 135.432 281.452 133.748 280.312 133.388 C 278.441 132.797 276.623 132.048 274.879 131.15 L 268.008 127.61 C 263.35 125.211 258.969 122.308 254.944 118.953 L 253.592 117.827 C 250.54 115.283 247.77 112.418 245.33 109.282 L 243.768 107.273 C 243.234 106.586 242.134 107.005 242.192 107.873 C 243.212 123.186 255.839 135.138 271.185 135.316 Z"/>
  <path d="M82.2231 456.395L231.313 323.4C245.367 310.863 257.58 296.403 267.59 280.45L268.5 279C273.404 269.192 275.497 258.217 274.547 247.293L273.24 232.258C272.436 223.009 268.618 214.28 262.373 207.41C262.131 207.144 261.81 206.961 261.457 206.889L237.5 202C220.117 196.752 201.688 195.995 183.933 199.8L183 200L169.06 203.259C128.405 212.763 92.5742 236.685 68.2116 270.592L67.597 271.447C60.8846 280.789 55.1822 290.817 50.5856 301.362L49.765 303.245C38.1544 329.881 34.2409 359.238 38.4684 387.985L39.8511 397.387C41.2751 407.07 44.1931 416.474 48.5011 425.262C52.4798 433.379 57.6014 440.883 63.7095 447.547L71.3177 455.847C74.1911 458.981 79.0498 459.225 82.2231 456.395Z"/>
  <path d="M212.749 278.858L212.267 279.133C199.686 286.322 192.918 299.892 193.58 314.367C193.768 318.484 197.893 322.255 201.858 321.132L209.163 319.062C218.607 316.386 227.353 311.681 234.789 305.274L256 287L262.292 282.343C298.871 255.269 344.833 244.113 389.754 251.405C391.14 251.63 391.184 253.607 389.81 253.894L384.5 255L382.093 255.842C377.15 257.572 372.856 260.776 369.79 265.022C369.214 265.819 369.982 266.89 370.922 266.601L372.663 266.065C382.467 263.049 392.751 261.904 402.978 262.691L407 263C428.843 263.95 449.114 274.626 462.254 292.1L467.179 298.65C481.776 318.063 487.953 342.53 484.319 366.545L482.421 379.087C479.837 396.163 473.618 412.486 464.184 426.952L463.5 428L453 442L441.5 455L430.965 465.114C421.346 474.348 410.827 482.597 399.567 489.738L396 492L389.175 495.25C387.417 496.087 385.95 493.678 387.5 492.5L397 483.5L398.953 481.449C404.232 475.906 408.027 469.12 409.986 461.721L410.889 458.309C411.295 456.776 411.5 455.174 411.5 453.588C411.5 444.909 405.354 437.298 396.836 435.631C391.554 434.597 386.085 435.962 381.907 439.356L372.5 447L355.894 460.587C344.995 469.504 333.185 477.245 320.66 483.682L303.5 492.5L274.5 503.5L268.412 505.16C257.822 508.049 247.012 510.06 236.092 511.174L228 512H202L167.5 508.25L148.832 504.21C138.985 502.079 129.456 498.682 120.482 494.103C113.181 490.378 106.293 485.894 99.931 480.725L85.5 469C68.005 455.64 57.0449 435.448 55.3749 413.498L54.5 402L55.5295 385.822C57.134 360.608 66.7911 336.576 83.0792 317.263C89.6652 309.454 97.2376 302.534 105.606 296.675L108.677 294.526C121.458 285.579 135.72 278.961 150.805 274.976L160.947 272.297C174.135 268.813 187.952 268.445 201.307 271.22L211.887 273.418C214.542 273.97 215.103 277.513 212.749 278.858Z"/>
</svg>