<svg width="28" height="32" viewBox="0 0 28 32" fill="none" xmlns="http://www.w3.org/2000/svg">
<path d="M5.23006 8.34238C5.40459 8.27544 6.0283 8.21704 6.61912 8.21134C8.8224 8.19202 11.0526 9.20003 12.9307 10.268L11.3857 11.4075C10.5359 12.0342 9.21126 13.1395 7.04828 15.1819C6.46435 14.4475 5.89907 13.7058 5.41031 12.903C4.78255 11.87 3.37597 9.05943 5.23006 8.34238Z" fill="black"/>
<path d="M6.53329 17.4152L7.0912 16.7287L8.39299 17.9892C9.10969 18.6829 10.4201 19.7938 12.9207 21.6625L12.4886 21.9118C12.2497 22.0485 11.4601 22.4132 10.7319 22.7208C10.0038 23.0285 8.99096 23.386 8.47882 23.517C7.86083 23.6751 7.14842 23.7378 6.35733 23.705C5.22005 23.6594 5.14566 23.6352 4.74797 23.1937C3.32935 21.6223 5.54211 18.6316 6.53329 17.4152Z" fill="black"/>
<path d="M19.567 17.9978L20.8544 16.7529L21.3308 17.2856C21.5926 17.5776 22.089 18.2656 22.4352 18.8139C23.1249 19.9109 24.3069 21.9966 23.2263 23.1937C22.4299 24.0778 20.5393 23.7823 19.4954 23.517C17.9491 23.1256 16.4467 22.4163 15.0493 21.6625C15.1499 21.5871 15.2506 21.5118 15.3512 21.4364L15.3542 21.4342L15.3573 21.4319L15.3627 21.4279C16.8116 20.3432 18.263 19.2567 19.567 17.9978Z" fill="black"/>
<path d="M7.75211 15.9653L9.00955 14.7489C10.3611 13.4395 11.8783 12.3067 13.4142 11.2223C13.6502 11.0543 13.892 10.9161 13.9506 10.9133C14.0093 10.9104 14.3641 11.1127 14.7374 11.3619C16.7346 12.7028 18.4941 14.2967 20.2207 15.9653L19.3924 16.7957C18.1376 18.0569 16.7318 19.1904 15.2739 20.2097C14.6445 20.6499 14.0651 21.0116 13.9864 21.0116C13.9077 21.0116 13.3284 20.6499 12.6989 20.2097C10.9057 18.9559 9.29389 17.5123 7.75211 15.9653ZM12.8992 14.1707C12.6946 14.3174 12.3899 14.6222 12.2211 14.8458C11.7752 15.4377 11.7926 16.4971 12.2025 17.1047C12.3613 17.3398 12.666 17.6431 12.8806 17.7799C13.4535 18.1441 14.5194 18.1441 15.0922 17.7799C15.3068 17.6431 15.6115 17.3398 15.7703 17.1047C16.1645 16.5204 16.1932 15.4635 15.8089 14.8643C15.6716 14.6507 15.3669 14.3473 15.1308 14.1892C14.5507 13.8012 13.4782 13.7517 12.8992 14.1707Z" fill="black"/>
<path d="M17.1336 9.24112C17.763 8.97193 18.6972 8.63294 19.2079 8.48766C19.773 8.32671 20.6284 8.21847 21.3895 8.21277C22.634 8.2028 22.6441 8.20565 23.1419 8.70131C24.7962 10.3484 22.2506 13.526 21.0972 14.9658C21.0354 15.043 20.9775 15.1152 20.9245 15.1819L19.4582 13.8103C18.6514 13.0554 17.3282 11.9502 15.0422 10.268C15.7196 9.88293 16.4154 9.54663 17.1336 9.24112Z" fill="black"/>
<path fill-rule="evenodd" clip-rule="evenodd" d="M13.9864 31.8948C13.9204 31.8948 11.6749 30.6337 4.62419 26.5852L0.0257498 23.9414L0.0257498 7.98915C1.27547 7.26946 2.52559 6.55044 3.77572 5.83142C6.2379 4.41527 8.7001 2.99912 11.1593 1.5778C12.8788 0.609214 14.0119 -0.0133455 14.0408 0.000189725C14.0605 0.00941691 14.5905 0.309823 15.9279 1.07121C17.2073 1.8098 19.0306 2.8605 21.0376 4.01532L27.9456 7.98915L27.9471 23.9414C24.2079 26.0913 21.392 27.7114 19.3091 28.9108C16.3206 30.6224 14.0528 31.896 13.9864 31.8948ZM5.29587 7.2656C5.59056 7.22002 5.8967 7.1602 5.97537 7.13456C6.38905 6.99228 6.90123 7.08432 7.34673 7.16437C7.44153 7.18141 7.53332 7.1979 7.6205 7.21148C9.58336 7.51718 11.3853 8.39212 13.1609 9.25431C13.4365 9.38815 13.7115 9.52169 13.9864 9.65275C14.1647 9.56431 14.3437 9.47486 14.5221 9.38569C15.7234 8.78526 16.9314 8.18146 18.2065 7.75556C19.4757 7.32896 20.9743 6.94265 22.3193 7.20293C22.7327 7.28269 23.1834 7.40661 23.3207 7.47782C23.807 7.73502 24.2936 8.3018 24.4923 8.80813C24.5753 9.0232 24.6439 9.52029 24.6439 9.91197C24.6439 11.7999 23.4034 13.6691 22.3022 15.1107C21.9417 15.5807 21.6913 16.0294 21.7471 16.1077C21.8055 16.1919 21.8696 16.2834 21.9383 16.3815C23.3649 18.4186 26.7958 23.3179 22.9273 24.6151C22.6512 24.7091 21.9116 24.7775 21.2822 24.7675C18.9995 24.734 16.8401 23.6792 14.8068 22.6859C14.531 22.5511 14.2575 22.4176 13.9864 22.2878C13.7321 22.4096 13.4776 22.5333 13.2228 22.6572C11.8898 23.3054 10.5434 23.96 9.12257 24.3773C8.20273 24.6465 7.48746 24.7576 6.61912 24.7661C5.64778 24.7761 5.28728 24.7177 4.83094 24.4798C4.25432 24.1797 3.72135 23.743 3.48194 23.1225C3.39754 22.9074 3.32887 22.4103 3.32887 22.0186C3.32887 20.8895 3.82167 19.7069 4.3746 18.7427C4.72173 18.1359 5.13782 17.5812 5.55443 17.0259C5.78174 16.7229 6.0092 16.4197 6.22572 16.1077C6.28151 16.0294 6.03117 15.5807 5.67067 15.1107C4.45825 13.5236 2.64042 10.8566 3.52056 8.73691C3.79994 8.06408 4.56178 7.37805 5.29587 7.2656Z" fill="black"/>
<path fill-rule="evenodd" clip-rule="evenodd" d="M6.97532 3.95693L0 7.95497L0.0257498 23.9414C1.74713 24.9321 3.27379 25.8097 4.62419 26.5852L0.0257498 23.9414L0.0257498 7.98915C1.27547 7.26946 2.52559 6.55044 3.77572 5.83142C6.2379 4.41527 8.7001 2.99912 11.1593 1.5778C9.98363 2.24 8.53385 3.06394 6.97532 3.95693ZM21.0376 27.9181C20.4429 28.2605 19.8636 28.5932 19.3091 28.9108C21.392 27.7114 24.2079 26.0913 27.9471 23.9414L21.0376 27.9181ZM28 7.95497L27.9471 23.9414L27.9456 7.98915L21.0376 4.01532C19.0306 2.8605 17.2073 1.8098 15.9279 1.07121C17.8935 2.19027 21.6032 4.30515 28 7.95497ZM5.23006 8.34238C5.40459 8.27544 6.0283 8.21704 6.61912 8.21134C8.8224 8.19202 11.0526 9.20003 12.9307 10.268L11.3857 11.4075C10.5359 12.0342 9.21126 13.1395 7.04828 15.1819C6.46435 14.4475 5.89907 13.7058 5.41031 12.903C4.78255 11.87 3.37597 9.05943 5.23006 8.34238ZM6.53329 17.4152L7.0912 16.7287L8.39299 17.9892C9.10969 18.6829 10.4201 19.7938 12.9207 21.6625L12.4886 21.9118C12.2497 22.0485 11.4601 22.4132 10.7319 22.7208C10.0038 23.0285 8.99096 23.386 8.47882 23.517C7.86083 23.6751 7.14842 23.7378 6.35733 23.705C5.22005 23.6594 5.14566 23.6352 4.74797 23.1937C3.32935 21.6223 5.54211 18.6316 6.53329 17.4152ZM19.567 17.9978L20.8544 16.7529L21.3308 17.2856C21.5926 17.5776 22.089 18.2656 22.4352 18.8139C23.1249 19.9109 24.3069 21.9966 23.2263 23.1937C22.4299 24.0778 20.5393 23.7823 19.4954 23.517C17.9491 23.1256 16.4467 22.4163 15.0493 21.6625C15.1499 21.5871 15.2506 21.5118 15.3512 21.4364L15.3542 21.4342L15.3573 21.4319L15.3627 21.4279C16.8116 20.3432 18.263 19.2567 19.567 17.9978Z" fill="black"/>
</svg>
